<svg xmlns="http://www.w3.org/2000/svg" xmlns:xlink="http://www.w3.org/1999/xlink" viewBox="0 0 1080 1080" width="1080" height="1080">
 <g className="page" style="">
  <rect x="0" y="0" width="1080" height="1080" fill="white">
  </rect>
  <g className="element" id="qWHon7LB2a" transform="translate(50.00000000000003, 49.99999999999997) rotate(0)"  opacity="1" style="transform-origin:top left; filter:;">
   <g >
    
    <defs>
    <clipPath id="clip-qWHon7LB2a">
      <path d="M188.684 8.95173C205.601 24.3309 200.988 63.0866 191.453 99.3816C182.225 135.677 168.076 169.511 146.238 175.355C124.399 181.507 94.871 159.668 66.5733 143.059C37.9679 126.449 10.5929 115.068 2.59569 95.0754C-5.4015 75.0824 5.97912 46.1694 24.4342 30.4826C42.8893 14.7958 68.4188 12.0276 100.715 6.79864C132.704 1.5697 171.767 -6.42749 188.684 8.95173Z" />
    </clipPath>
  </defs>

  <!-- Path for the fill -->
  <path d="M188.684 8.95173C205.601 24.3309 200.988 63.0866 191.453 99.3816C182.225 135.677 168.076 169.511 146.238 175.355C124.399 181.507 94.871 159.668 66.5733 143.059C37.9679 126.449 10.5929 115.068 2.59569 95.0754C-5.4015 75.0824 5.97912 46.1694 24.4342 30.4826C42.8893 14.7958 68.4188 12.0276 100.715 6.79864C132.704 1.5697 171.767 -6.42749 188.684 8.95173Z" fill="rgba(205,0,0,1)" transform="scale(2.3071705452338573, 2.606972367495882)"/>

  <!-- Path for the stroke, clipped by the star path -->
  <path d="M188.684 8.95173C205.601 24.3309 200.988 63.0866 191.453 99.3816C182.225 135.677 168.076 169.511 146.238 175.355C124.399 181.507 94.871 159.668 66.5733 143.059C37.9679 126.449 10.5929 115.068 2.59569 95.0754C-5.4015 75.0824 5.97912 46.1694 24.4342 30.4826C42.8893 14.7958 68.4188 12.0276 100.715 6.79864C132.704 1.5697 171.767 -6.42749 188.684 8.95173Z" fill="none" stroke="#0c0c0c" stroke-width="4" clip-path="url(#clip-qWHon7LB2a)" transform="scale(2.3071705452338573, 2.606972367495882)" stroke-dasharray=""/>
    
     </g>
  </g>
 </g>
</svg>
