<svg xmlns="http://www.w3.org/2000/svg" xmlns:xlink="http://www.w3.org/1999/xlink" viewBox="0 0 542 542" width="542" height="542">
 <g className="page" style="">
  <rect x="0" y="0" width="542" height="542" fill="transparent">
  </rect>
  <g className="element" id="cskqlo49Lk" transform="translate(10.095172617761932, 10.095172617760909) rotate(0)"  opacity="1" style="transform-origin:top left; filter:;">
   <g >
    
    <defs>
    <clipPath id="clip-cskqlo49Lk">
      <path d="M185.203 1.52939C197.679 7.62217 200 32.2835 200 51.7223C200 71.1612 197.389 85.3777 197.679 100.175C198.259 114.681 201.741 129.768 198.259 143.114C194.778 156.46 184.623 168.356 171.567 173.868C158.801 179.671 143.134 179.091 130.368 174.739C117.312 170.387 106.867 162.263 86.8482 160.812C66.539 159.362 36.9454 164.294 18.9572 155.3C0.968966 146.306 -5.41395 123.095 5.03083 105.977C15.4756 88.5692 42.4579 77.5442 55.5139 59.5559C68.2798 41.8578 67.1192 17.4867 76.9837 9.6531C86.5581 2.10965 107.158 11.3939 128.627 9.6531C150.097 8.20244 172.728 -4.27327 185.203 1.52939Z" />
    </clipPath>
  </defs>

  <!-- Path for the fill -->
  <path d="M185.203 1.52939C197.679 7.62217 200 32.2835 200 51.7223C200 71.1612 197.389 85.3777 197.679 100.175C198.259 114.681 201.741 129.768 198.259 143.114C194.778 156.46 184.623 168.356 171.567 173.868C158.801 179.671 143.134 179.091 130.368 174.739C117.312 170.387 106.867 162.263 86.8482 160.812C66.539 159.362 36.9454 164.294 18.9572 155.3C0.968966 146.306 -5.41395 123.095 5.03083 105.977C15.4756 88.5692 42.4579 77.5442 55.5139 59.5559C68.2798 41.8578 67.1192 17.4867 76.9837 9.6531C86.5581 2.10965 107.158 11.3939 128.627 9.6531C150.097 8.20244 172.728 -4.27327 185.203 1.52939Z" fill="rgba(126,200,0,1)" transform="scale(2.609048273822381, 2.9151377361144037)"/>

  <!-- Path for the stroke, clipped by the star path -->
  <path d="M185.203 1.52939C197.679 7.62217 200 32.2835 200 51.7223C200 71.1612 197.389 85.3777 197.679 100.175C198.259 114.681 201.741 129.768 198.259 143.114C194.778 156.46 184.623 168.356 171.567 173.868C158.801 179.671 143.134 179.091 130.368 174.739C117.312 170.387 106.867 162.263 86.8482 160.812C66.539 159.362 36.9454 164.294 18.9572 155.3C0.968966 146.306 -5.41395 123.095 5.03083 105.977C15.4756 88.5692 42.4579 77.5442 55.5139 59.5559C68.2798 41.8578 67.1192 17.4867 76.9837 9.6531C86.5581 2.10965 107.158 11.3939 128.627 9.6531C150.097 8.20244 172.728 -4.27327 185.203 1.52939Z" fill="none" stroke="#0c0c0c" stroke-width="0" clip-path="url(#clip-cskqlo49Lk)" transform="scale(2.609048273822381, 2.9151377361144037)" stroke-dasharray=""/>
    
     </g>
  </g>
 </g>
</svg>
